<?xml version="1.0" standalone="no"?>
<!DOCTYPE svg PUBLIC "-//W3C//DTD SVG 20010904//EN"
 "http://www.w3.org/TR/2001/REC-SVG-20010904/DTD/svg10.dtd">
<svg version="1.0" xmlns="http://www.w3.org/2000/svg"
 width="512.000000pt" height="512.000000pt" viewBox="0 0 512.000000 512.000000"
 preserveAspectRatio="xMidYMid meet">
<metadata>
Created by potrace 1.11, written by Peter Selinger 2001-2013
</metadata>
<g transform="translate(0.000000,512.000000) scale(0.100000,-0.100000)"
fill="#000000" stroke="none">
<path d="M2010 4603 c-320 -34 -665 -182 -934 -402 -105 -86 -247 -231 -315
-322 -169 -224 -274 -492 -302 -775 -59 -574 366 -1100 932 -1153 281 -26 579
73 731 244 82 93 116 218 83 305 -10 25 -20 66 -22 92 -4 40 -1 51 21 73 35
34 72 32 163 -10 99 -47 172 -66 258 -66 171 -1 311 113 346 283 16 75 31 94
103 127 82 37 135 86 177 163 32 58 34 70 34 153 0 82 -3 97 -33 157 -52 106
-152 178 -269 193 -62 8 -84 29 -114 110 -30 82 -112 163 -194 195 -85 32
-180 31 -266 -4 -83 -33 -97 -33 -146 3 -92 67 -120 76 -228 76 -90 0 -105 -3
-154 -28 -29 -16 -75 -49 -101 -73 l-48 -45 -94 -2 c-118 -3 -195 -35 -264
-109 -58 -63 -85 -124 -94 -218 -7 -66 -11 -77 -38 -100 -110 -91 -133 -115
-156 -163 -62 -127 -52 -229 32 -319 26 -28 72 -63 104 -79 91 -46 112 -99 62
-158 -21 -26 -33 -31 -68 -31 -100 0 -249 118 -314 248 -33 68 -37 85 -40 168
-6 156 44 281 159 394 59 59 66 71 77 125 30 151 146 304 282 373 65 32 177
61 237 62 22 0 57 17 110 53 96 65 162 88 278 94 105 6 187 -10 280 -58 l61
-30 59 16 c77 20 216 19 286 -1 136 -40 264 -142 326 -260 28 -52 38 -63 65
-68 51 -9 148 -59 204 -104 101 -80 179 -233 191 -372 17 -201 -92 -408 -267
-508 -52 -29 -57 -35 -74 -92 -48 -160 -199 -300 -371 -345 -75 -19 -201 -19
-284 0 -35 9 -65 14 -66 13 -1 -2 -9 -41 -18 -87 -22 -114 -63 -194 -147 -284
-179 -192 -453 -297 -773 -297 -217 0 -416 54 -595 160 -45 27 -82 46 -82 43
0 -24 71 -153 95 -173 139 -113 262 -313 306 -495 25 -107 27 -272 4 -360 -50
-197 -210 -385 -386 -457 -30 -12 -85 -43 -124 -68 -38 -26 -203 -125 -365
-220 -162 -95 -299 -177 -304 -181 -6 -5 651 -9 1468 -9 l1477 0 -26 43 c-14
23 -60 104 -101 179 l-75 137 -57 16 c-264 77 -443 296 -446 548 -1 74 1 80
27 103 36 31 87 32 122 1 22 -18 28 -35 36 -100 21 -169 91 -269 239 -340 107
-51 185 -62 460 -61 360 1 508 31 548 111 39 78 66 231 102 578 11 110 27 224
36 252 28 100 106 157 289 211 117 35 170 56 179 71 4 5 -12 47 -34 92 -167
332 -252 632 -310 1099 -35 280 -85 461 -183 655 -124 248 -333 491 -583 678
-261 195 -469 282 -772 322 -97 13 -323 17 -412 8z"/>
</g>
</svg>
