<svg xmlns="http://www.w3.org/2000/svg" width="62.791" height="90" viewBox="0 0 62.791 90"><g transform="translate(-3613.388 226.704)"><g transform="translate(3643.67 -226.704)"><path d="M3686.416-206.583a1.114,1.114,0,0,1-1.114-1.113v-17.894a1.114,1.114,0,0,1,1.114-1.113,1.114,1.114,0,0,1,1.114,1.113V-207.7A1.114,1.114,0,0,1,3686.416-206.583Z" transform="translate(-3685.302 226.704)" fill="#07373b"/></g><g transform="translate(3655.669 -217.277)"><path d="M3714.659-193.491a1.113,1.113,0,0,1-.946-.523,1.114,1.114,0,0,1,.354-1.535l13.532-8.467a1.113,1.113,0,0,1,1.535.353,1.114,1.114,0,0,1-.353,1.535l-13.532,8.467A1.107,1.107,0,0,1,3714.659-193.491Z" transform="translate(-3713.544 204.185)" fill="#07373b"/></g><g transform="translate(3618.138 -217.277)"><path d="M3639.38-193.491a1.1,1.1,0,0,1-.589-.17l-13.532-8.467a1.113,1.113,0,0,1-.353-1.535,1.113,1.113,0,0,1,1.534-.353l13.532,8.467a1.114,1.114,0,0,1,.353,1.535A1.113,1.113,0,0,1,3639.38-193.491Z" transform="translate(-3624.735 204.185)" fill="#07373b"/></g><g transform="translate(3613.388 -188.724)"><path d="M3671.67-122.373H3617.9a4.5,4.5,0,0,1-4.508-4.483v-4.909a4.5,4.5,0,0,1,4.508-4.482h53.774a4.5,4.5,0,0,1,4.508,4.482v4.909A4.5,4.5,0,0,1,3671.67-122.373ZM3617.9-133.317a1.559,1.559,0,0,0-1.561,1.552v4.909a1.559,1.559,0,0,0,1.561,1.553h53.774a1.558,1.558,0,0,0,1.561-1.553v-4.909a1.558,1.558,0,0,0-1.561-1.552Z" transform="translate(-3613.388 136.247)" fill="#07373b"/></g><g transform="translate(3613.388 -169.349)"><path d="M3671.67-76.231H3617.9a4.5,4.5,0,0,1-4.508-4.482v-4.909A4.5,4.5,0,0,1,3617.9-90.1h53.774a4.5,4.5,0,0,1,4.508,4.482v4.909A4.5,4.5,0,0,1,3671.67-76.231ZM3617.9-87.174a1.558,1.558,0,0,0-1.561,1.552v4.909a1.558,1.558,0,0,0,1.561,1.552h53.774a1.558,1.558,0,0,0,1.561-1.552v-4.909a1.558,1.558,0,0,0-1.561-1.552Z" transform="translate(-3613.388 90.104)" fill="#07373b"/></g><g transform="translate(3613.388 -150.578)"><path d="M3671.67-31.522H3617.9a4.5,4.5,0,0,1-4.508-4.483v-4.909A4.5,4.5,0,0,1,3617.9-45.4h53.774a4.5,4.5,0,0,1,4.508,4.482v4.909A4.5,4.5,0,0,1,3671.67-31.522ZM3617.9-42.466a1.559,1.559,0,0,0-1.561,1.552v4.909a1.559,1.559,0,0,0,1.561,1.553h53.774a1.558,1.558,0,0,0,1.561-1.553v-4.909a1.558,1.558,0,0,0-1.561-1.552Z" transform="translate(-3613.388 45.396)" fill="#07373b"/></g><g transform="translate(3619.51 -183.679)"><circle cx="1.892" cy="1.892" r="1.892" fill="#07373b"/></g><g transform="translate(3626.257 -183.679)"><circle cx="1.892" cy="1.892" r="1.892" fill="#07373b"/></g><g transform="translate(3619.51 -145.533)"><circle cx="1.892" cy="1.892" r="1.892" fill="#07373b"/></g><g transform="translate(3626.257 -145.533)"><circle cx="1.892" cy="1.892" r="1.892" fill="#07373b"/></g><g transform="translate(3666.293 -164.312)"><circle cx="1.892" cy="1.892" r="1.892" fill="#07373b"/></g><g transform="translate(3629.88 -201.148)"><path d="M3655.545-159.807a3.01,3.01,0,0,1-3.007-3.007,3.01,3.01,0,0,1,3.007-3.007,3.01,3.01,0,0,1,3.008,3.007A3.01,3.01,0,0,1,3655.545-159.807Zm0-4.34a1.334,1.334,0,0,0-1.332,1.332,1.334,1.334,0,0,0,1.332,1.333,1.334,1.334,0,0,0,1.333-1.333A1.334,1.334,0,0,0,3655.545-164.147Z" transform="translate(-3652.538 165.821)" fill="#07373b"/></g><g transform="translate(3653.672 -201.148)"><path d="M3712.027-159.807a3.01,3.01,0,0,1-3.007-3.007,3.01,3.01,0,0,1,3.007-3.007,3.01,3.01,0,0,1,3.007,3.007A3.011,3.011,0,0,1,3712.027-159.807Zm0-4.34a1.334,1.334,0,0,0-1.333,1.332,1.334,1.334,0,0,0,1.333,1.333,1.334,1.334,0,0,0,1.333-1.333A1.334,1.334,0,0,0,3712.027-164.147Z" transform="translate(-3709.02 165.821)" fill="#07373b"/></g><g transform="translate(3641.775 -201.149)"><path d="M3683.779-159.807a2.988,2.988,0,0,1-1.772-.582,2.989,2.989,0,0,1-1.194-1.967,2.984,2.984,0,0,1,.547-2.236,2.985,2.985,0,0,1,1.967-1.194,2.987,2.987,0,0,1,2.236.546,2.986,2.986,0,0,1,1.194,1.968,2.985,2.985,0,0,1-.546,2.235,2.987,2.987,0,0,1-1.967,1.194A3.014,3.014,0,0,1,3683.779-159.807Zm.009-4.341a1.313,1.313,0,0,0-.206.016,1.322,1.322,0,0,0-.872.529,1.327,1.327,0,0,0-.242.991,1.323,1.323,0,0,0,.53.872,1.324,1.324,0,0,0,.991.242,1.321,1.321,0,0,0,.872-.529,1.324,1.324,0,0,0,.242-.991h0a1.326,1.326,0,0,0-.529-.872A1.324,1.324,0,0,0,3683.788-164.148Z" transform="translate(-3680.777 165.823)" fill="#07373b"/></g></g></svg>