<svg xmlns="http://www.w3.org/2000/svg" width="55.274" height="90" viewBox="0 0 55.274 90"><g transform="translate(-4636.325 -118.553)"><g transform="translate(4651.952 118.553)"><path d="M4724.375,121.638c.165,0,.329,0,.394,0a8.833,8.833,0,0,1,6.848,14.026l-7.241,10.013-7.242-10.013a8.833,8.833,0,0,1,6.848-14.026c.065,0,.229,0,.394,0m0-3.085c-.2,0-.39,0-.467,0a11.711,11.711,0,0,0-6.246,1.954,12,12,0,0,0-3.026,16.964l7.242,10.013a3.081,3.081,0,0,0,4.994,0l7.242-10.013a12,12,0,0,0-3.027-16.964,11.7,11.7,0,0,0-6.246-1.954c-.076,0-.271,0-.466,0Z" transform="translate(-4712.364 -118.553)" fill="#07373b"/></g><path d="M4683.5,295.3a27.672,27.672,0,1,0,8.095,19.557A27.446,27.446,0,0,0,4683.5,295.3Zm-43.185,19.557a23.759,23.759,0,0,1,.557-5.122l1.758,1.607,2.494,3.569-1.087,6.187,1.9,5.647,3.753,2.789,1.23-5.389,3.5-5.062,5.5-3.016,1.609-1.156-5.027-3.271-2.537-3.22,4.145-7.848-8.29-4.634-.13.05a23.513,23.513,0,0,1,12-4.683l-.156.06,4.826,8.8s3.821.8,4.826,0a1.015,1.015,0,0,1,1.609.358l3.217,2.661,3.787-5.9a23.76,23.76,0,0,1,4.745,5.919l-.023-.023-4.711-.93-2.791,3.546-11.061.4-1.989,5.136,7.821,6.536-3.911,7.848-3.911,3.622,3.911,4.629,2.75,3.583a23.654,23.654,0,0,1-30.312-22.7Zm30.406,22.676,4.485-7.178,5.63-3.61v-4.834l6.435-3.429s.026-.038.069-.108A23.681,23.681,0,0,1,4670.726,337.536Z" transform="translate(0 -133.964)" fill="#07373b"/><g transform="translate(4659.13 124.62)"><path d="M4752.127,157.722a4.835,4.835,0,1,1,4.831-4.835A4.839,4.839,0,0,1,4752.127,157.722Zm0-8.067a3.232,3.232,0,1,0,3.229,3.232A3.235,3.235,0,0,0,4752.127,149.655Z" transform="translate(-4747.295 -148.051)" fill="#07373b"/></g></g></svg>