<svg xmlns="http://www.w3.org/2000/svg" width="74.118" height="90" viewBox="0 0 74.118 90"><g transform="translate(-3448.001 -130.042)"><g transform="translate(3448.001 151.596)"><path d="M3458.948,265.3a3.753,3.753,0,0,1,.156-5.337l6.424-6a3.844,3.844,0,0,1,5.364.183,3.747,3.747,0,0,1-.128,5.308l-6.424,6A3.846,3.846,0,0,1,3458.948,265.3Zm6.931,7.268a3.751,3.751,0,0,1,.156-5.337l6.424-6a3.843,3.843,0,0,1,5.391.155,3.746,3.746,0,0,1-.157,5.335l-6.424,6a3.847,3.847,0,0,1-5.39-.16Zm6.93,7.267a3.751,3.751,0,0,1,.157-5.336l6.423-6a3.843,3.843,0,0,1,5.288.244,3.745,3.745,0,0,1-.052,5.238l-6.424,6a3.843,3.843,0,0,1-5.392-.152Zm12.322,7.423a3.843,3.843,0,0,1-3.711.871,3.792,3.792,0,0,1-2.618-2.745,3.75,3.75,0,0,1,1.094-3.616l6.424-6a3.844,3.844,0,0,1,5.363.183,3.747,3.747,0,0,1-.128,5.309Zm-30.443-30.012a1.321,1.321,0,0,0,.119-1.815,18.623,18.623,0,0,1,1.62-25.593,19.1,19.1,0,0,1,26.8.782l-10.117,9.454a5.05,5.05,0,0,0-1.575,3.468c-.124,5.02,7.423,8.182,12.035,3.863l9.221-8.611a1.245,1.245,0,0,1,1.747.049c2.423,2.541,17.641,18.5,19.966,20.935a3.743,3.743,0,0,1-.156,5.334h0a3.831,3.831,0,0,1-5.389-.154l-16.462-17.26a1.245,1.245,0,0,0-1.747-.05,1.214,1.214,0,0,0-.051,1.729l16.466,17.259a3.746,3.746,0,0,1,.881,3.672,3.8,3.8,0,0,1-2.774,2.591,3.84,3.84,0,0,1-3.654-1.081l-16.465-17.262a1.244,1.244,0,0,0-1.184-.35,1.229,1.229,0,0,0-.9.839,1.214,1.214,0,0,0,.285,1.19l16.46,17.257a3.74,3.74,0,0,1,.217,4.929,3.837,3.837,0,0,1-4.9.92,6.127,6.127,0,0,0-1.405-4.866,6.259,6.259,0,0,0-4.611-2.189c-1.359-.036-.865.473-.831-.872a6.177,6.177,0,0,0-1.71-4.449,6.313,6.313,0,0,0-4.39-1.947c-1.359-.043-.871.489-.83-.871a6.185,6.185,0,0,0-1.711-4.449,6.315,6.315,0,0,0-4.39-1.948c-1.368-.038-.871.5-.83-.872a6.221,6.221,0,0,0-3.715-5.844,6.342,6.342,0,0,0-6.881,1.141c-7.626,6.7-7.883,8.08-7.883,8.08a6.135,6.135,0,0,0,.746,6.178,6.284,6.284,0,0,0,5.795,2.415,6.116,6.116,0,0,0,1.586,5.39,6.263,6.263,0,0,0,5.346,1.879,6.114,6.114,0,0,0,1.585,5.389,6.261,6.261,0,0,0,5.345,1.878,6.19,6.19,0,0,0,3.17,6.578,6.327,6.327,0,0,0,7.3-.933c7.051-6.586,6.829-6.258,7.5-7.367a6.294,6.294,0,0,0,6.384-.518,6.147,6.147,0,0,0,2.557-5.811,6.287,6.287,0,0,0,5.439-1.583,6.14,6.14,0,0,0,1.9-5.285,6.3,6.3,0,0,0,6.666-3.178,6.159,6.159,0,0,0-1.028-7.251l-1.681-1.759h0l-18.225-19.11a3.733,3.733,0,0,0-5.239-.149l-9.222,8.613a5.1,5.1,0,0,1-7.174-.219,2.5,2.5,0,0,1,.11-3.561l12.847-12.008a19.11,19.11,0,0,1,26.4.312,18.626,18.626,0,0,1,2.875,23.019,1.206,1.206,0,0,0,.237,1.552h0a1.234,1.234,0,0,0,1.853-.29,20.985,20.985,0,0,0-2.758-25.5h0a21.515,21.515,0,0,0-14.969-6.656c-5.685-.164-11.2,1.918-16.271,6.661a21.594,21.594,0,0,0-30.3-.882,21.051,21.051,0,0,0-1.681,29.106,1.141,1.141,0,0,0,1.639.082Z" transform="translate(-3448.001 -222.267)" fill="#07373b"/></g><g transform="translate(3484.233 130.042)"><path d="M3602.229,148.973a.822.822,0,0,1-.826-.818v-17.3a.827.827,0,0,1,1.653,0v17.3A.823.823,0,0,1,3602.229,148.973Z" transform="translate(-3601.403 -130.042)" fill="#07373b"/></g><g transform="translate(3465.442 135.108)"><path d="M3535.027,165.582a.829.829,0,0,1-.584-.24l-12.359-12.23a.812.812,0,0,1,0-1.157.833.833,0,0,1,1.169,0l12.36,12.229a.812.812,0,0,1,0,1.157A.83.83,0,0,1,3535.027,165.582Z" transform="translate(-3521.841 -151.717)" fill="#07373b"/></g><g transform="translate(3490.666 135.108)"><path d="M3629.463,165.582a.828.828,0,0,1-.584-.24.812.812,0,0,1,0-1.157l12.359-12.229a.833.833,0,0,1,1.169,0,.813.813,0,0,1,0,1.157l-12.359,12.23A.828.828,0,0,1,3629.463,165.582Z" transform="translate(-3628.636 -151.717)" fill="#07373b"/></g></g></svg>