<svg xmlns="http://www.w3.org/2000/svg" width="55.274" height="55.315" viewBox="0 0 55.274 55.315"><path d="M4683.5,295.3a27.672,27.672,0,1,0,8.095,19.557A27.446,27.446,0,0,0,4683.5,295.3Zm-43.185,19.557a23.759,23.759,0,0,1,.557-5.122l1.758,1.607,2.494,3.569-1.087,6.187,1.9,5.647,3.753,2.789,1.23-5.389,3.5-5.062,5.5-3.016,1.609-1.156-5.027-3.271-2.537-3.22,4.145-7.848-8.29-4.634-.13.05a23.513,23.513,0,0,1,12-4.683l-.156.06,4.826,8.8s3.821.8,4.826,0a1.015,1.015,0,0,1,1.609.358l3.217,2.661,3.787-5.9a23.76,23.76,0,0,1,4.745,5.919l-.023-.023-4.711-.93-2.791,3.546-11.061.4-1.989,5.136,7.821,6.536-3.911,7.848-3.911,3.622,3.911,4.629,2.75,3.583a23.654,23.654,0,0,1-30.312-22.7Zm30.406,22.676,4.485-7.178,5.63-3.61v-4.834l6.435-3.429s.026-.038.069-.108A23.681,23.681,0,0,1,4670.726,337.536Z" transform="translate(-4636.325 -287.202)" fill="#07373b"/></svg>