<svg xmlns="http://www.w3.org/2000/svg" width="90" height="55.752" viewBox="0 0 90 55.752"><g transform="translate(-3777.209 -711.549)"><path d="M3825,834.875a10.684,10.684,0,0,1,10.681,10.686v19.945a5.727,5.727,0,0,1-5.725,5.728h-37.973l-12.965,3.533,7.24-9.261V840.6a5.727,5.727,0,0,1,5.725-5.728H3825m0-1.812h-33.018a7.547,7.547,0,0,0-7.537,7.541v24.279l-6.855,8.769a1.812,1.812,0,0,0,1.9,2.865l12.732-3.469h37.731a7.547,7.547,0,0,0,7.536-7.541V845.562a12.5,12.5,0,0,0-12.492-12.5Z" transform="translate(0 -109.279)" fill="#07373b"/><g transform="translate(3805.397 711.549)"><g transform="translate(1.956 0)"><path d="M4076.729,986.346v.05a11.535,11.535,0,0,0,11.532,11.538h.05A11.585,11.585,0,0,1,4076.729,986.346Z" transform="translate(-4076.729 -958.676)" fill="#07373b"/><path d="M4130.093,744.623V717.734a6.183,6.183,0,0,0-6.182-6.185h-41a6.183,6.183,0,0,0-6.182,6.185v21.485a11.583,11.583,0,1,1,11.583,11.589h35.6l11.449,2.941a.978.978,0,0,0,1-1.572Z" transform="translate(-4076.729 -711.549)" fill="#07373b"/></g><path d="M4081.385,889.572l4.06,2.268-2.03,3.843,1.242,1.576,2.462,1.6-.788.566-2.692,1.477-1.715,2.478-.6,2.638-1.838-1.365-.932-2.765.532-3.029-1.222-1.747-1.133-1.036A11.561,11.561,0,0,1,4081.385,889.572Z" transform="translate(-4074.773 -871.647)" fill="#07373b"/><path d="M4179.971,866.6l2.363,4.31s1.871.394,2.363,0a.5.5,0,0,1,.788.175l1.576,1.3,1.859-2.894A11.012,11.012,0,0,0,4179.971,866.6Z" transform="translate(-4167.625 -850.911)" fill="#07373b"/><path d="M4192.794,922.235l-.974,2.514,3.83,3.2-1.915,3.843-1.915,1.774,1.915,2.266,1.368,1.781,2.222-3.555,2.757-1.767v-2.367l3.151-1.679a11.185,11.185,0,0,0-1.348-7.488l-2.308-.455-1.366,1.736Z" transform="translate(-4178.281 -899.282)" fill="#07373b"/><path d="M4070.827,849.037a11.584,11.584,0,1,1-11.578,11.584,11.581,11.581,0,0,1,11.578-11.584m0-1.957a13.537,13.537,0,1,0,9.57,3.966,13.442,13.442,0,0,0-9.57-3.966Z" transform="translate(-4057.293 -833.433)" fill="#07373b"/></g></g></svg>