<svg xmlns="http://www.w3.org/2000/svg" width="1110.297" height="964.819" viewBox="0 0 1110.297 964.819"><g transform="matrix(0.875, -0.485, 0.485, 0.875, -4050.074, -1091.489)" opacity="0.1"><path d="M2919.382,3404.031a51.7,51.7,0,1,0,51.7,51.7A51.76,51.76,0,0,0,2919.382,3404.031Z" transform="translate(106.862 492.471)" fill="#2b9f99"/><path d="M2986.49,3888.164a356.994,356.994,0,0,1-58.118-317.3,172.863,172.863,0,0,0,229.024-237.5,356.053,356.053,0,0,1,113.75-18.559c129.466,0,243.073,69.188,305.794,172.53a114.531,114.531,0,0,1,22.914-9.164c-66.555-112.3-188.975-187.759-328.708-187.759a380.18,380.18,0,0,0-127.364,21.869,174.837,174.837,0,0,0-15.84-18.259A172.872,172.872,0,1,0,2906.779,3558a381.44,381.44,0,0,0,61.912,347.031A72.414,72.414,0,0,1,2986.49,3888.164Z" transform="translate(0 0)" fill="#2b9f99"/><path d="M3078.314,3309.412a66.417,66.417,0,0,0-2.8,132.776c.934.041,1.854.142,2.8.142a66.459,66.459,0,0,0,0-132.917Z" transform="translate(548.824 202.404)" fill="#2b9f99"/><path d="M3445.188,3352.74q-.263,12.288-1.354,24.361c-16.255,182.141-169.692,325.41-355.993,325.41a355.194,355.194,0,0,1-180.62-49.109,72.038,72.038,0,0,1-14.6,19.7,379.468,379.468,0,0,0,195.219,53.8c200.373,0,365.185-155.145,380.642-351.617q.982-12.477,1.131-25.174a90.736,90.736,0,0,1-21.934,2.691C3446.842,3352.8,3446.017,3352.764,3445.188,3352.74Z" transform="translate(183.304 327.178)" fill="#2b9f99"/></g></svg>