<svg xmlns="http://www.w3.org/2000/svg" width="331.627" height="328.073" viewBox="0 0 331.627 328.073"><g transform="translate(-387.381 -1309.503)"><g transform="translate(719.008 1342.806) rotate(98)" opacity="0.1"><path d="M18.7,0A18.7,18.7,0,1,0,37.4,18.7,18.72,18.72,0,0,0,18.7,0Z" transform="translate(51.255 236.21)" fill="#2b9f99"/><path d="M55.574,233.194A129.113,129.113,0,0,1,34.555,118.437a62.519,62.519,0,0,0,82.831-85.9A129.259,129.259,0,0,1,269.121,88.228a41.4,41.4,0,0,1,8.287-3.314,138.034,138.034,0,0,0-164.946-60,63.2,63.2,0,0,0-5.729-6.6,62.522,62.522,0,1,0-79.987,95.471,137.956,137.956,0,0,0,22.391,125.51A26.192,26.192,0,0,1,55.574,233.194Z" transform="translate(0 0)" fill="#2b9f99"/><path d="M24.037,0a24.048,24.048,0,0,0-3,.207,24.009,24.009,0,0,0,1.982,47.814c.338.015.671.051,1.013.051A24.036,24.036,0,0,0,24.037,0Z" transform="translate(263.239 97.082)" fill="#2b9f99"/><path d="M199.845.95q-.1,4.444-.489,8.811c-5.879,65.875-61.373,117.69-128.751,117.69A128.459,128.459,0,0,1,5.28,109.69,26.052,26.052,0,0,1,0,116.814a137.242,137.242,0,0,0,70.6,19.459c72.468,0,132.075-56.111,137.666-127.169q.355-4.513.409-9.1a32.811,32.811,0,0,1-7.933.973C200.443.973,200.145.959,199.845.95Z" transform="translate(87.92 156.929)" fill="#2b9f99"/></g><g transform="translate(452.901 1372.808)"><g transform="translate(0 0)"><path d="M2783.755,393.418a98.432,98.432,0,0,1-55.121-16.768l-39.461,12.342a3.446,3.446,0,0,1-4.152-4.747l16.3-34.981a99.048,99.048,0,1,1,82.434,44.153Zm-54.6-24.056a3.346,3.346,0,0,1,1.923.608,92.2,92.2,0,1,0-22.9-22.878,3.446,3.446,0,0,1-.216,4.231l-13.4,28.759,32.987-10.318A3.425,3.425,0,0,1,2729.159,369.362Z" transform="translate(-2684.696 -195.301)" fill="#fff"/></g><g transform="translate(57.018 59.791)"><g transform="translate(22.749)"><path d="M2762.435,278.434l-.317,0a19.888,19.888,0,0,1,.3-39.773l.318,0a19.908,19.908,0,0,1,19.576,20.193h0a19.887,19.887,0,0,1-19.875,19.58Zm-.012-27.364a7.476,7.476,0,0,0-.113,14.952,7.287,7.287,0,0,0,5.319-2.107,7.431,7.431,0,0,0,2.273-5.251l6.2.1-6.2-.1a7.484,7.484,0,0,0-7.358-7.592Z" transform="translate(-2742.539 -238.658)" fill="#fff"/></g><g transform="translate(0 38.071)"><path d="M2745.939,306.041l-.317,0a19.888,19.888,0,0,1,.3-39.773l.317,0a19.909,19.909,0,0,1,19.576,20.195h0a19.887,19.887,0,0,1-19.875,19.578Zm-.012-27.363a7.476,7.476,0,1,0,7.478,7.592l6.2.1-6.2-.1a7.486,7.486,0,0,0-7.358-7.592Z" transform="translate(-2726.042 -266.265)" fill="#fff"/></g><g transform="translate(44.306 38.76)"><path d="M2778.067,306.539l-.317,0a19.887,19.887,0,0,1,.3-39.772l.316,0a19.886,19.886,0,0,1,19.577,20.193l-6.2-.1,6.2.1a19.888,19.888,0,0,1-19.875,19.578Zm-.012-27.363a7.476,7.476,0,1,0,7.478,7.592h0a7.478,7.478,0,0,0-7.358-7.59Z" transform="translate(-2758.17 -266.764)" fill="#fff"/></g></g></g></g></svg>