<svg xmlns="http://www.w3.org/2000/svg" width="260.666" height="276" viewBox="0 0 260.666 276"><path d="M360.783,827.483c-4.825-9.53-13.809-27.269-17.991-66.75-6.451-60.9-56.792-93.891-75.644-101.464A121.463,121.463,0,0,0,218.868,651c-31.124,1.022-59.1,13.789-83.159,37.949a106.007,106.007,0,0,0-30.95,64.369,77.52,77.52,0,0,0,26.788,67.924c19.318,16.409,44.251,21.826,68.41,14.86,16.386-4.725,28.71-14.309,33.811-26.3a30.118,30.118,0,0,0,2.4-14.089,70.6,70.6,0,0,0,9.553,1.721,45.841,45.841,0,0,0,21.117-2.242,32.832,32.832,0,0,0,9.657-5.712,34.21,34.21,0,0,0,7.094-8.547,43.947,43.947,0,0,0,4.225-9.793,61.593,61.593,0,0,0,1.926-8.725l.629-.853c.479-.67.938-1.344,1.377-2.028q1.322-2.049,2.456-4.2a49.363,49.363,0,0,0,3.7-9.1,38.379,38.379,0,0,0,1.535-9.972,32.37,32.37,0,0,0-.318-5.144c-.122-.856-.271-1.706-.471-2.548-.18-.878-.386-1.571-.6-2.374a37.24,37.24,0,0,0-3.9-9.254,30.325,30.325,0,0,0-6.714-7.776,41.1,41.1,0,0,0-16.02-7.7q-.417-.655-.849-1.283c-.622-.912-1.283-1.783-1.957-2.646a50.027,50.027,0,0,0-4.411-4.865,40.169,40.169,0,0,0-10.882-7.61,32.646,32.646,0,0,0-13.117-3.116,36.5,36.5,0,0,0-11.519,1.7c-.37-.217-.736-.425-1.12-.639q-1.3-.716-2.637-1.354a49.4,49.4,0,0,0-5.5-2.235,36.124,36.124,0,0,0-11.927-2.029,24.254,24.254,0,0,0-12.091,3.274,26.147,26.147,0,0,0-7.948,7.447c-1.708.1-3.315.291-4.98.527A62.349,62.349,0,0,0,176.1,689.9a44.917,44.917,0,0,0-12.2,4.97,26.96,26.96,0,0,0-9.616,9.593,25.5,25.5,0,0,0-3.206,12.152,61.106,61.106,0,0,0-4.677,4.776,59.679,59.679,0,0,0-4.733,6.133,37.857,37.857,0,0,0-6.148,14.435,24.335,24.335,0,0,0-.054,8.075,23.186,23.186,0,0,0,2.7,7.6,34.2,34.2,0,0,0,10.085,10.691,32.139,32.139,0,0,0,.251,5.977A29.1,29.1,0,0,0,150.2,781a23.444,23.444,0,0,0,3.418,6.061,21.307,21.307,0,0,0,5.164,4.667,23.5,23.5,0,0,0,6.274,2.812,31.326,31.326,0,0,0,6.665,1.2,43.979,43.979,0,0,0,13.328-.946,24.407,24.407,0,0,0,11.813-6.258,21.275,21.275,0,0,0,5.779-11.955,31.887,31.887,0,0,0-.734-12.395.565.565,0,0,0,.31-.009c.071-.023,6.754-2.213,16.9,3.084a3.524,3.524,0,1,0,.426-1.107A33.011,33.011,0,0,0,211,763.019a21.545,21.545,0,0,1-2.583-7.951,27.061,27.061,0,0,1,3.749-17.056,3.505,3.505,0,0,0,3.7-.6,3.536,3.536,0,1,0-4.98-.3,3.5,3.5,0,0,0,.289.268c-4.165,7.282-4.483,13.652-3.918,17.909a23.473,23.473,0,0,0,2.254,7.471,17.549,17.549,0,0,0-7.672.3.6.6,0,0,0-.192.114,32.359,32.359,0,0,0-2.3-5.937,19.244,19.244,0,0,0-3.83-5.322,19.131,19.131,0,0,1,3.633,5.42,32.293,32.293,0,0,1,2.142,6.175,31.507,31.507,0,0,1,.489,12.921,20.155,20.155,0,0,1-5.831,11.155,22.865,22.865,0,0,1-11.275,5.485,43.34,43.34,0,0,1-12.326.542l1.223-11.067,10.221-8.78a3.478,3.478,0,0,0,1.444.739,3.554,3.554,0,1,0-2.215-1.628l-9.261,7.956,1.877-16.981a3.489,3.489,0,0,0,2.1-.837,3.536,3.536,0,1,0-4.975-.375,3.506,3.506,0,0,0,1.707,1.093l-3.288,29.756a29.121,29.121,0,0,1-5.439-1.175,21.111,21.111,0,0,1-5.594-2.668A19.155,19.155,0,0,1,152.83,780a26.194,26.194,0,0,1-1.382-6.069,28.521,28.521,0,0,1-.036-6.182,1.618,1.618,0,0,0-.651-1.487,31.688,31.688,0,0,1-9.53-10.325,19.63,19.63,0,0,1-1.911-13.279c.041-.209.1-.416.146-.624a.59.59,0,0,0,.211.137l9.382,3.39a3.6,3.6,0,1,0,.4-1.107l-9.389-3.392a.568.568,0,0,0-.38,0,35.388,35.388,0,0,1,5.458-11.124,57.029,57.029,0,0,1,9.394-10.251,30.469,30.469,0,0,1,9.126.5l2.266,10.88a3.484,3.484,0,0,0-1.3.872,3.553,3.553,0,0,0,.177,5.007,3.517,3.517,0,0,0,4.985-.178,3.553,3.553,0,0,0-.177-5.007,3.508,3.508,0,0,0-2.541-.946l-2.154-10.343c5.592,1.4,13.253,5.042,19.677,14.282a3.5,3.5,0,1,0,1.4-.808,3.485,3.485,0,0,0-.416.168c-6.614-9.539-14.61-13.428-21.081-14.9a.587.587,0,0,0-.466-.107l0,0a32.553,32.553,0,0,0-8.541-.669,2.35,2.35,0,0,0,.16-.787,21.025,21.025,0,0,1,2.854-10.7,19.979,19.979,0,0,1,4.449-5.1l30.993,17.629a3.575,3.575,0,1,0,.58-1.024l-19.952-11.35a20.4,20.4,0,0,1,17.466-2.965,3.528,3.528,0,1,0,.377-1.116,21.505,21.505,0,0,0-18.954,3.45l-9.507-5.407a26.162,26.162,0,0,1,2.585-1.7A39.626,39.626,0,0,1,177.4,695.3a56.807,56.807,0,0,1,5.828-1.017,51.331,51.331,0,0,1,5.811-.394,2.953,2.953,0,0,0,2.406-1.273l.022-.032a20.847,20.847,0,0,1,6.968-6.607,17.989,17.989,0,0,1,9.077-2.187,29.691,29.691,0,0,1,9.72,1.931,42.583,42.583,0,0,1,4.694,2.048c.764.387,1.517.8,2.254,1.229.714.417,1.5.91,2.066,1.306a3.455,3.455,0,0,0,3.021.459l.077-.025a30.181,30.181,0,0,1,10.6-1.543c.562.028,1.121.083,1.678.148l-15.284,16.012c-.006,0-.01-.01-.016-.014a3.6,3.6,0,1,0,.856.838l10.643-11.149c1.907.879,10.565,5.582,9.129,17.963a3.512,3.512,0,0,0-2.571,1.828,3.531,3.531,0,1,0,4.769-1.47,3.464,3.464,0,0,0-1.022-.339c1.351-12.24-6.86-17.518-9.459-18.867l4.383-4.592a25.283,25.283,0,0,1,7.009,2.321,32.518,32.518,0,0,1,8.65,6.4,42.167,42.167,0,0,1,3.6,4.174c.547.739,1.088,1.487,1.582,2.253.249.382.492.767.721,1.149.218.361.477.815.6,1.064a3.976,3.976,0,0,0,2.548,2.042l.106.027c5.3,1.348,10.284,3.488,14.055,6.764a23.454,23.454,0,0,1,7.2,11.968,32.919,32.919,0,0,1-19.133-3.228,3.509,3.509,0,1,0-2.177,1.962,3.491,3.491,0,0,0,1.514-.961,35.548,35.548,0,0,0,9.74,3.226l-38.76,5.708a3.51,3.51,0,0,0-6.045-1.194,3.534,3.534,0,1,0,5.4,4.563,3.516,3.516,0,0,0,.812-2.2l16.725-2.463-3.58,8.86a3.488,3.488,0,0,0-2.483.355,3.539,3.539,0,1,0,4.8,1.359,3.493,3.493,0,0,0-1.232-1.27l3.839-9.5,25.249-3.718c.368.012.728.02,1.068.02a26.2,26.2,0,0,0,4.574-.369c.136.554.284,1.145.364,1.632.129.6.218,1.208.29,1.82a23.218,23.218,0,0,1,.134,3.706,29.018,29.018,0,0,1-1.355,7.48,39.8,39.8,0,0,1-3.153,7.222c-.647,1.161-1.351,2.3-2.1,3.4-.373.55-.759,1.087-1.152,1.608l-.592.764-.534.642-.038.044a5.23,5.23,0,0,0-1.132,2.513c-.918,5.773-2.57,11.348-5.406,15.851a23.055,23.055,0,0,1-5.152,5.878L264.053,763.5a3.524,3.524,0,1,0-2.621.234,3.481,3.481,0,0,0,1.5.114l2.984,9.62-10.552-2.624a3.509,3.509,0,1,0-.274,1.146l11.233,2.794,2.286,7.37a21.717,21.717,0,0,1-5.5,2.858c-4.854,1.717-10.47,1.922-16.075,1.184a59.648,59.648,0,0,1-8.41-1.762c-1.389-.395-2.77-.836-4.128-1.319-.679-.242-1.352-.494-2.011-.756-.63-.25-1.373-.562-1.826-.775l-.075-.034-.129-.057a5.822,5.822,0,0,0-2.137-.47l-.078-.008-.124,0a5.8,5.8,0,0,0-3.2.644,5.9,5.9,0,0,0-2.467,7.956,17.669,17.669,0,0,1,.535,15.561c-3.708,8.714-13.278,15.858-26.259,19.6a61.385,61.385,0,0,1-57.592-12.53,65.739,65.739,0,0,1-22.708-57.6,94.48,94.48,0,0,1,27.588-57.364c49.356-49.566,103.4-33.253,118.784-27.073.613.246,61.411,26.419,68.333,91.769,4.41,41.64,14.031,60.639,19.2,70.845,1.276,2.518,2.712,5.357,2.847,6.417-1,1.488-6.961,3.209-10.2,4.145-7.845,2.266-16.739,4.833-19.052,12.969-1.012,3.555-1.6,9.642-2.338,17.347-1.021,10.619-3.146,32.717-7.438,36.7-5.868,5.439-47.569,6.245-57.273,2.255-12.461-5.124-17.856-12.412-18.042-24.367a5.88,5.88,0,0,0-5.864-5.8h-.093a5.88,5.88,0,0,0-5.776,5.982c.383,24.834,19.159,32.554,25.329,35.09,4.786,1.969,17.077,3.378,30.182,3.378,16.027,0,33.272-2.108,39.5-7.879,7.025-6.511,9.133-23.149,11.16-44.222.629-6.543,1.223-12.722,1.94-15.244.527-1.852,7.348-3.822,11.012-4.881,7.113-2.053,14.467-4.178,17.523-10.317C366.516,838.807,363.986,833.809,360.783,827.483Z" transform="translate(-104.262 -650.937)" fill="#07373b"/><path d="M157.057,902.693a45.43,45.43,0,0,0-8.889-8.565c2.716,7.764,5.236,15.06,7.11,22.348a84.445,84.445,0,0,1,3.058,21.414,51.465,51.465,0,0,1-4.071,20.346c-2.763,6.621-7.079,12.872-11.955,19.543a44.179,44.179,0,0,0,5.679-2.456,40.679,40.679,0,0,0,5.277-3.351,41.11,41.11,0,0,0,8.994-9.111,42.646,42.646,0,0,0,7.807-24.952,54.522,54.522,0,0,0-6.219-24.781A60.582,60.582,0,0,0,157.057,902.693Z" transform="translate(-113.14 -707.682)" fill="#07373b"/></svg>